<svg width="16" height="16" viewBox="0 0 16 16" fill="none" xmlns="http://www.w3.org/2000/svg">
<path d="M3.25735 6.91048C3.18276 6.91048 3.11935 6.88783 3.06714 6.84255C3.02238 6.78972 3 6.72557 3 6.6501V1.29538C3 1.21991 3.02238 1.15576 3.06714 1.10293C3.11935 1.0501 3.18276 1.02368 3.25735 1.02368H3.77205C3.84665 1.02368 3.91005 1.0501 3.96227 1.10293C4.01449 1.15576 4.04059 1.21991 4.04059 1.29538V1.79349C4.34643 1.28029 4.86859 1.02368 5.60708 1.02368H6.04346C6.11805 1.02368 6.17773 1.0501 6.22249 1.10293C6.2747 1.14821 6.30081 1.20859 6.30081 1.28406V1.74821C6.30081 1.82368 6.2747 1.88406 6.22249 1.92934C6.17773 1.97463 6.11805 1.99727 6.04346 1.99727H5.37211C4.9693 1.99727 4.65227 2.11802 4.42103 2.35953C4.18978 2.59349 4.07416 2.91425 4.07416 3.32179C4.07416 4.62158 4.07416 5.35031 4.07416 6.6501C4.07416 6.72557 4.04805 6.78972 3.99584 6.84255C3.94362 6.88783 3.88022 6.91048 3.80562 6.91048H3.25735Z" fill="#F9F9FA" fill-opacity="0.8"/>
<path d="M10.0978 7.07925C9.38919 7.07925 8.84092 6.84906 8.45303 6.38868C8.06513 5.92075 7.87119 5.30189 7.87119 4.53208V1.33962C7.87119 1.26415 7.89357 1.20377 7.93832 1.15849C7.99054 1.10566 8.05395 1.07925 8.12854 1.07925H8.688C8.76259 1.07925 8.82227 1.10566 8.86703 1.15849C8.91924 1.20377 8.94535 1.26415 8.94535 1.33962V4.47547C8.94535 5.6 9.43022 6.16226 10.3999 6.16226C10.8699 6.16226 11.2429 6.01509 11.5189 5.72076C11.7949 5.41887 11.9329 5.00377 11.9329 4.47547V1.33962C11.9329 1.26415 11.9552 1.20377 12 1.15849C12.0522 1.10566 12.1156 1.07925 12.1902 1.07925H12.7497C12.8243 1.07925 12.8839 1.10566 12.9287 1.15849C12.9735 1.20377 12.9958 1.26415 12.9958 1.33962V6.70566C12.9958 6.78113 12.9735 6.84528 12.9287 6.89811C12.8839 6.9434 12.8243 6.96604 12.7497 6.96604H12.2238C12.1492 6.96604 12.0858 6.9434 12.0336 6.89811C11.9888 6.84528 11.9664 6.78113 11.9664 6.70566V6.20755C11.7576 6.49434 11.5039 6.71321 11.2056 6.86415C10.9072 7.00755 10.5379 7.07925 10.0978 7.07925Z" fill="#F9F9FA" fill-opacity="0.8"/>
<path d="M4.46307 16C3.73719 16 3.15578 15.7667 2.71884 15.3C2.28894 14.8259 2.05286 14.1815 2.01057 13.3667L2 12.9889L2.01057 12.6222C2.0599 11.8222 2.29952 11.1852 2.72941 10.7111C3.16635 10.237 3.74071 10 4.4525 10C5.23476 10 5.84084 10.263 6.27074 10.7889C6.70063 11.3074 6.91557 12.0111 6.91557 12.9V13.0889C6.91557 13.163 6.89091 13.2259 6.84158 13.2778C6.79929 13.3222 6.74291 13.3444 6.67244 13.3444H3.01483V13.4444C3.03597 13.9259 3.1734 14.337 3.4271 14.6778C3.68786 15.0111 4.02966 15.1778 4.4525 15.1778C4.77668 15.1778 5.04096 15.1111 5.24534 14.9778C5.45676 14.837 5.6118 14.6926 5.71047 14.5444C5.77389 14.4556 5.8197 14.4037 5.84789 14.3889C5.88313 14.3667 5.94303 14.3556 6.0276 14.3556H6.54558C6.60901 14.3556 6.66187 14.3741 6.70415 14.4111C6.74644 14.4481 6.76758 14.5 6.76758 14.5667C6.76758 14.7296 6.66891 14.9259 6.47159 15.1556C6.28131 15.3852 6.00998 15.5852 5.65761 15.7556C5.31229 15.9185 4.91411 16 4.46307 16ZM5.91132 12.5778V12.5444C5.91132 12.0333 5.77742 11.6185 5.50961 11.3C5.24886 10.9741 4.89649 10.8111 4.4525 10.8111C4.00851 10.8111 3.65614 10.9741 3.39539 11.3C3.14168 11.6185 3.01483 12.0333 3.01483 12.5444V12.5778H5.91132Z" fill="#F9F9FA" fill-opacity="0.8"/>
<path d="M9.36353 15.8889C9.29306 15.8889 9.23316 15.8667 9.18382 15.8222C9.14154 15.7704 9.1204 15.7074 9.1204 15.6333V10.3667C9.1204 10.2926 9.14154 10.2333 9.18382 10.1889C9.23316 10.137 9.29306 10.1111 9.36353 10.1111H9.86038C9.93085 10.1111 9.98723 10.137 10.0295 10.1889C10.0788 10.2333 10.1035 10.2926 10.1035 10.3667V10.8556C10.3079 10.5815 10.5475 10.3704 10.8223 10.2222C11.1042 10.0741 11.4531 10 11.8689 10C12.5454 10 13.0705 10.2296 13.444 10.6889C13.8245 11.1407 14.0148 11.7444 14.0148 12.5V15.6333C14.0148 15.7074 13.9902 15.7704 13.9408 15.8222C13.8985 15.8667 13.8422 15.8889 13.7717 15.8889H13.2431C13.1727 15.8889 13.1128 15.8667 13.0634 15.8222C13.0211 15.7704 13 15.7074 13 15.6333V12.5556C13 12.0296 12.8767 11.6222 12.63 11.3333C12.3904 11.0444 12.0416 10.9 11.5835 10.9C11.1395 10.9 10.7871 11.0481 10.5264 11.3444C10.2656 11.6333 10.1352 12.037 10.1352 12.5556V15.6333C10.1352 15.7074 10.1106 15.7704 10.0612 15.8222C10.0189 15.8667 9.96256 15.8889 9.89209 15.8889H9.36353Z" fill="#F9F9FA" fill-opacity="0.8"/>
<line x1="1.5" y1="8.5" x2="14.5" y2="8.5" stroke="#F9F9FA" stroke-opacity="0.8" stroke-linecap="round"/>
</svg>
