<svg width="32" height="32" viewBox="0 0 32 32" fill="none" xmlns="http://www.w3.org/2000/svg">
<path d="M7.529 13.0081C7.37567 13.0081 7.24533 12.9621 7.138 12.8701C7.046 12.7628 7 12.6324 7 12.4791V1.6001C7 1.44677 7.046 1.31643 7.138 1.2091C7.24533 1.10177 7.37567 1.0481 7.529 1.0481H8.587C8.74033 1.0481 8.87067 1.10177 8.978 1.2091C9.08533 1.31643 9.139 1.44677 9.139 1.6001V2.6121C9.76767 1.56943 10.841 1.0481 12.359 1.0481H13.256C13.4093 1.0481 13.532 1.10177 13.624 1.2091C13.7313 1.3011 13.785 1.42377 13.785 1.5771V2.5201C13.785 2.67343 13.7313 2.7961 13.624 2.8881C13.532 2.9801 13.4093 3.0261 13.256 3.0261H11.876C11.048 3.0261 10.3963 3.27143 9.921 3.7621C9.44567 4.23743 9.208 4.8891 9.208 5.7171C9.208 8.35783 9.208 9.83838 9.208 12.4791C9.208 12.6324 9.15433 12.7628 9.047 12.8701C8.93967 12.9621 8.80933 13.0081 8.656 13.0081H7.529Z" fill="black"/>
<path d="M19.543 13.19C18.0863 13.19 16.9593 12.7223 16.162 11.787C15.3647 10.8363 14.966 9.579 14.966 8.015V1.529C14.966 1.37567 15.012 1.253 15.104 1.161C15.2113 1.05367 15.3417 1 15.495 1H16.645C16.7983 1 16.921 1.05367 17.013 1.161C17.1203 1.253 17.174 1.37567 17.174 1.529V7.9C17.174 10.1847 18.1707 11.327 20.164 11.327C21.13 11.327 21.8967 11.028 22.464 10.43C23.0313 9.81667 23.315 8.97333 23.315 7.9V1.529C23.315 1.37567 23.361 1.253 23.453 1.161C23.5603 1.05367 23.6907 1 23.844 1H24.994C25.1473 1 25.27 1.05367 25.362 1.161C25.454 1.253 25.5 1.37567 25.5 1.529V12.431C25.5 12.5843 25.454 12.7147 25.362 12.822C25.27 12.914 25.1473 12.96 24.994 12.96H23.913C23.7597 12.96 23.6293 12.914 23.522 12.822C23.43 12.7147 23.384 12.5843 23.384 12.431V11.419C22.9547 12.0017 22.4333 12.4463 21.82 12.753C21.2067 13.0443 20.4477 13.19 19.543 13.19Z" fill="black"/>
<path d="M9.359 31.42C7.77967 31.42 6.51467 30.937 5.564 29.971C4.62867 28.9897 4.115 27.6557 4.023 25.969L4 25.187L4.023 24.428C4.13033 22.772 4.65167 21.4533 5.587 20.472C6.53767 19.4907 7.78733 19 9.336 19C11.038 19 12.3567 19.5443 13.292 20.633C14.2273 21.7063 14.695 23.163 14.695 25.003V25.394C14.695 25.5473 14.6413 25.6777 14.534 25.785C14.442 25.877 14.3193 25.923 14.166 25.923H6.208V26.13C6.254 27.1267 6.553 27.9777 7.105 28.683C7.67233 29.373 8.416 29.718 9.336 29.718C10.0413 29.718 10.6163 29.58 11.061 29.304C11.521 29.0127 11.8583 28.7137 12.073 28.407C12.211 28.223 12.3107 28.1157 12.372 28.085C12.4487 28.039 12.579 28.016 12.763 28.016H13.89C14.028 28.016 14.143 28.0543 14.235 28.131C14.327 28.2077 14.373 28.315 14.373 28.453C14.373 28.7903 14.1583 29.1967 13.729 29.672C13.315 30.1473 12.7247 30.5613 11.958 30.914C11.2067 31.2513 10.3403 31.42 9.359 31.42ZM12.51 24.336V24.267C12.51 23.209 12.2187 22.3503 11.636 21.691C11.0687 21.0163 10.302 20.679 9.336 20.679C8.37 20.679 7.60333 21.0163 7.036 21.691C6.484 22.3503 6.208 23.209 6.208 24.267V24.336H12.51Z" fill="black"/>
<path d="M17.8131 31.19C17.6598 31.19 17.5295 31.144 17.4221 31.052C17.3301 30.9447 17.2841 30.8143 17.2841 30.661V19.759C17.2841 19.6057 17.3301 19.483 17.4221 19.391C17.5295 19.2837 17.6598 19.23 17.8131 19.23H18.8941C19.0475 19.23 19.1701 19.2837 19.2621 19.391C19.3695 19.483 19.4231 19.6057 19.4231 19.759V20.771C19.8678 20.2037 20.3891 19.7667 20.9871 19.46C21.6005 19.1533 22.3595 19 23.2641 19C24.7361 19 25.8785 19.4753 26.6911 20.426C27.5191 21.3613 27.9331 22.611 27.9331 24.175V30.661C27.9331 30.8143 27.8794 30.9447 27.7721 31.052C27.6801 31.144 27.5575 31.19 27.4041 31.19H26.2541C26.1008 31.19 25.9705 31.144 25.8631 31.052C25.7711 30.9447 25.7251 30.8143 25.7251 30.661V24.29C25.7251 23.2013 25.4568 22.358 24.9201 21.76C24.3988 21.162 23.6398 20.863 22.6431 20.863C21.6771 20.863 20.9104 21.1697 20.3431 21.783C19.7758 22.381 19.4921 23.2167 19.4921 24.29V30.661C19.4921 30.8143 19.4385 30.9447 19.3311 31.052C19.2391 31.144 19.1165 31.19 18.9631 31.19H17.8131Z" fill="black"/>
<line x1="2.5" y1="16.5" x2="29.5" y2="16.5" stroke="black" stroke-linecap="round"/>
</svg>
