<svg width="1024" height="1024" viewBox="0 0 1024 1024" fill="none" xmlns="http://www.w3.org/2000/svg">
<rect width="1024" height="1024" fill="white"/>
<g filter="url(#filter0_d)">
<path fill-rule="evenodd" clip-rule="evenodd" d="M746.87 30C873.779 30 976.659 132.921 976.659 259.881C976.659 386.84 873.779 489.761 746.87 489.761H300.424C252.155 489.761 207.362 474.873 170.384 449.435C141.593 475.933 99.5826 490 47 490C74.6622 479.753 94.7388 454.782 97.1357 423.126V367.152C80.2157 335.127 70.6354 298.623 70.6354 259.881C70.6354 132.921 173.515 30 300.424 30H746.87Z" fill="#E5E5EA"/>
<path d="M251.042 337.101V204.696H271.238V224.348H273.209C275.179 217.88 279.613 212.598 286.509 208.504C293.405 204.41 301.246 202.363 310.03 202.363C314.053 202.363 317.583 202.568 320.621 202.977V224.103C317.748 223.284 313.232 222.874 307.075 222.874C296.976 222.874 288.643 225.904 282.075 231.963C275.508 238.023 272.224 245.72 272.224 255.054V337.101H251.042Z" fill="black"/>
<path d="M356.826 337.101V222.383H334.782V204.696H356.826V191.8C356.826 178.535 360.151 168.832 366.801 162.691C373.533 156.468 383.467 153.356 396.603 153.356C400.379 153.356 404.731 153.765 409.657 154.584V172.271C406.291 171.534 402.35 171.165 397.834 171.165C384.616 171.165 378.007 178.248 378.007 192.414V204.696H408.425V222.383H378.007V337.101H356.826Z" fill="black"/>
<path d="M476.279 339.435C459.285 339.435 445.738 333.212 435.64 320.765C425.542 308.319 420.493 291.697 420.493 270.899C420.493 250.182 425.542 233.601 435.64 221.155C445.821 208.627 459.367 202.363 476.279 202.363C485.557 202.363 493.849 204.451 501.155 208.627C508.544 212.721 514.127 218.371 517.904 225.577H519.751V152.128H540.932V337.101H520.736V315.975H518.766C514.579 323.345 508.75 329.117 501.278 333.293C493.807 337.388 485.474 339.435 476.279 339.435ZM481.205 221.401C469.137 221.401 459.654 225.822 452.758 234.666C445.862 243.427 442.413 255.505 442.413 270.899C442.413 286.375 445.821 298.493 452.635 307.255C459.531 316.016 469.055 320.397 481.205 320.397C493.274 320.397 502.797 315.975 509.776 307.132C516.754 298.289 520.243 286.211 520.243 270.899C520.243 255.75 516.713 243.714 509.653 234.788C502.674 225.863 493.192 221.401 481.205 221.401Z" fill="black"/>
<path d="M597.211 204.696V343.611C597.211 357.203 593.927 367.07 587.359 373.211C580.791 379.434 570.528 382.546 556.571 382.546H552.877V364.491H556.079C563.468 364.491 568.64 362.935 571.596 359.823C574.551 356.712 576.029 351.43 576.029 343.979V204.696H597.211ZM597.087 173.499C594.214 176.365 590.725 177.798 586.62 177.798C582.515 177.798 579.026 176.365 576.152 173.499C573.279 170.551 571.842 167.071 571.842 163.059C571.842 159.047 573.279 155.608 576.152 152.742C579.026 149.794 582.515 148.32 586.62 148.32C590.725 148.32 594.214 149.794 597.087 152.742C599.961 155.608 601.398 159.047 601.398 163.059C601.398 167.071 599.961 170.551 597.087 173.499Z" fill="black"/>
<path d="M759.273 337.101L742.895 319.414C735.259 326.047 726.434 331.205 716.418 334.89C706.484 338.575 696.139 340.417 685.384 340.417C667.733 340.417 653.283 335.709 642.036 326.292C630.87 316.876 625.288 304.716 625.288 289.814C625.288 269.179 637.028 252.68 660.508 240.316L667.404 236.876C659.277 228.361 653.53 220.95 650.164 214.645C646.798 208.258 645.114 201.831 645.114 195.362C645.114 183.98 649.425 174.523 658.045 166.989C666.666 159.456 677.462 155.69 690.433 155.69C703.569 155.69 714.406 159.456 722.944 166.989C731.483 174.441 735.752 183.98 735.752 195.608C735.752 204.696 732.755 212.803 726.762 219.927C720.851 227.05 711.04 234.215 697.33 241.421L741.786 289.077C747.369 277.941 750.16 262.055 750.16 241.421V238.35H770.849V241.544C770.849 268.156 765.964 288.995 756.195 304.061L787.105 337.101H759.273ZM673.316 253.335C656.075 262.26 647.454 273.928 647.454 288.34C647.454 298.329 651.108 306.395 658.415 312.536C665.803 318.677 675.45 321.748 687.355 321.748C695.482 321.748 703.364 320.274 710.999 317.326C718.716 314.297 724.997 310.243 729.841 305.167L679.596 250.387C678.693 250.715 676.6 251.697 673.316 253.335ZM685.384 228.893C696.221 223.407 703.856 218.207 708.29 213.294C712.723 208.381 714.94 202.731 714.94 196.344C714.94 189.466 712.682 183.898 708.167 179.64C703.651 175.382 697.781 173.253 690.556 173.253C683.496 173.253 677.667 175.423 673.069 179.763C668.554 184.103 666.296 189.712 666.296 196.59C666.296 201.503 667.733 206.375 670.606 211.206C673.48 216.037 678.406 221.933 685.384 228.893Z" fill="black"/>
</g>
<g filter="url(#filter1_d)">
<path fill-rule="evenodd" clip-rule="evenodd" d="M280.585 522C151.579 522 47 626.525 47 755.463C47 884.401 151.58 988.926 280.585 988.926H722.546C773.837 988.926 821.267 972.403 859.798 944.392C888 968.756 925.623 983.589 967.591 983.589C967.706 983.589 967.947 983.584 968.288 983.576C969.707 983.545 972.866 983.474 976 983.589C948.162 973.2 927.958 947.882 925.546 915.787V871.038C945.009 836.961 956.131 797.51 956.131 755.463C956.131 626.525 851.551 522 722.546 522H280.585Z" fill="#007AFF"/>
<path d="M209.223 761.331H215.109L268.58 704.889H294.752L232.891 768.465L297.131 839.8H269.206L215.109 778.351H209.223V839.8H187.684V704.889H209.223V761.331Z" fill="white"/>
<path d="M358.491 823.28C369.595 823.28 378.778 820.068 386.041 813.644C393.387 807.219 397.061 799.168 397.061 789.49V777.1L360.745 779.478C350.56 780.145 343.088 782.273 338.33 785.86C333.571 789.448 331.192 794.663 331.192 801.504C331.192 808.262 333.738 813.602 338.831 817.523C343.923 821.361 350.477 823.28 358.491 823.28ZM354.484 842.178C341.21 842.178 330.274 838.548 321.675 831.29C313.159 823.947 308.902 814.186 308.902 802.005C308.902 789.99 313.159 780.562 321.675 773.721C330.19 766.879 342.337 763 358.116 762.082L397.061 759.704V747.44C397.061 739.096 394.473 732.714 389.297 728.292C384.121 723.87 376.524 721.659 366.506 721.659C358.408 721.659 351.687 723.119 346.344 726.039C341.001 728.959 337.578 733.089 336.076 738.429H314.286C315.706 727.666 321.257 718.989 330.942 712.398C340.709 705.807 352.814 702.511 367.257 702.511C383.62 702.511 396.268 706.474 405.2 714.4C414.133 722.326 418.6 733.34 418.6 747.44V839.8H398.063V819.901H396.059C391.718 827.076 385.957 832.583 378.778 836.421C371.598 840.259 363.5 842.178 354.484 842.178Z" fill="white"/>
<path d="M508.636 722.91H475.702V760.956H505.13C522.077 760.956 530.551 754.531 530.551 741.683C530.551 735.842 528.714 731.254 525.041 727.916C521.451 724.579 515.983 722.91 508.636 722.91ZM507.008 778.977H475.702V821.778H511.141C519.406 821.778 525.667 819.984 529.924 816.397C534.266 812.726 536.436 807.47 536.436 800.628C536.436 793.203 533.973 787.738 529.048 784.233C524.206 780.729 516.859 778.977 507.008 778.977ZM454.163 839.8V704.889H511.391C523.997 704.889 533.89 708.018 541.07 714.275C548.249 720.449 551.839 728.834 551.839 739.43C551.839 746.105 549.71 752.195 545.452 757.702C541.278 763.125 536.061 766.504 529.799 767.839V769.841C538.315 771.009 545.119 774.472 550.211 780.229C555.304 785.902 557.85 792.827 557.85 801.003C557.85 812.851 553.759 822.279 545.578 829.287C537.396 836.296 526.084 839.8 511.642 839.8H454.163Z" fill="white"/>
<path d="M612.823 809.639C619.752 818.399 629.603 822.779 642.376 822.779C655.149 822.779 665.001 818.399 671.93 809.639C678.859 800.795 682.323 788.363 682.323 772.344C682.323 756.325 678.859 743.935 671.93 735.175C665.001 726.331 655.149 721.909 642.376 721.909C629.603 721.909 619.752 726.331 612.823 735.175C605.894 743.935 602.429 756.325 602.429 772.344C602.429 788.363 605.894 800.795 612.823 809.639ZM687.833 823.53C676.73 835.962 661.578 842.178 642.376 842.178C623.175 842.178 607.981 835.962 596.794 823.53C585.691 811.015 580.139 793.953 580.139 772.344C580.139 750.652 585.691 733.59 596.794 721.158C607.898 708.727 623.092 702.511 642.376 702.511C661.661 702.511 676.855 708.727 687.959 721.158C699.062 733.59 704.614 750.652 704.614 772.344C704.614 793.953 699.02 811.015 687.833 823.53Z" fill="white"/>
<path d="M722.771 706.391C723.522 692.124 728.573 680.485 737.923 671.474C747.357 662.38 760.505 657.833 777.369 657.833C792.981 657.833 805.712 662.13 815.563 670.723C825.497 679.317 830.465 690.121 830.465 703.137C830.465 721.409 821.741 735.801 804.293 746.313C796.445 750.986 791.06 755.407 788.138 759.579C785.3 763.751 783.881 769.174 783.881 775.848V783.983H761.966V772.469C761.883 764.293 763.845 757.201 767.852 751.194C771.943 745.187 778.329 739.597 787.011 734.424C794.358 729.919 799.534 725.413 802.539 720.908C805.628 716.403 807.173 710.854 807.173 704.263C807.173 696.421 804.334 689.996 798.657 684.99C793.064 679.901 785.676 677.356 776.492 677.356C767.059 677.356 759.462 679.943 753.701 685.115C748.024 690.288 744.852 697.38 744.184 706.391H722.771ZM787.011 837.172C783.839 840.425 779.707 842.052 774.614 842.052C769.522 842.052 765.347 840.425 762.091 837.172C758.836 833.918 757.208 829.746 757.208 824.657C757.208 819.567 758.836 815.396 762.091 812.142C765.347 808.804 769.522 807.136 774.614 807.136C779.707 807.136 783.839 808.763 787.011 812.017C790.267 815.27 791.895 819.484 791.895 824.657C791.895 829.746 790.267 833.918 787.011 837.172Z" fill="white"/>
</g>
<defs>
<filter id="filter0_d" x="43" y="27.5" width="937.659" height="468" filterUnits="userSpaceOnUse" color-interpolation-filters="sRGB">
<feFlood flood-opacity="0" result="BackgroundImageFix"/>
<feColorMatrix in="SourceAlpha" type="matrix" values="0 0 0 0 0 0 0 0 0 0 0 0 0 0 0 0 0 0 127 0"/>
<feOffset dy="1.5"/>
<feGaussianBlur stdDeviation="2"/>
<feColorMatrix type="matrix" values="0 0 0 0 0 0 0 0 0 0 0 0 0 0 0 0 0 0 0.25 0"/>
<feBlend mode="normal" in2="BackgroundImageFix" result="effect1_dropShadow"/>
<feBlend mode="normal" in="SourceGraphic" in2="effect1_dropShadow" result="shape"/>
</filter>
<filter id="filter1_d" x="43" y="520" width="937" height="474.926" filterUnits="userSpaceOnUse" color-interpolation-filters="sRGB">
<feFlood flood-opacity="0" result="BackgroundImageFix"/>
<feColorMatrix in="SourceAlpha" type="matrix" values="0 0 0 0 0 0 0 0 0 0 0 0 0 0 0 0 0 0 127 0"/>
<feOffset dy="2"/>
<feGaussianBlur stdDeviation="2"/>
<feColorMatrix type="matrix" values="0 0 0 0 0 0 0 0 0 0 0 0 0 0 0 0 0 0 0.25 0"/>
<feBlend mode="normal" in2="BackgroundImageFix" result="effect1_dropShadow"/>
<feBlend mode="normal" in="SourceGraphic" in2="effect1_dropShadow" result="shape"/>
</filter>
</defs>
</svg>
